<!DOCTYPE svg PUBLIC "-//W3C//DTD SVG 20010904//EN" "http://www.w3.org/TR/2001/REC-SVG-20010904/DTD/svg10.dtd">
<svg version="1.0" xmlns="http://www.w3.org/2000/svg" width="1559px" height="1448px" viewBox="0 0 15590 14480" preserveAspectRatio="xMidYMid meet">
<g id="layer101" fill="#2a553e" stroke="none">
 <path d="M2010 13741 c57 -7 100 -25 100 -41 0 -6 6 -10 12 -10 7 0 0 12 -14 27 -23 23 -37 27 -90 29 l-63 2 55 -7z"/>
 <path d="M838 13733 c23 -2 61 -2 85 0 23 2 4 4 -43 4 -47 0 -66 -2 -42 -4z"/>
 <path d="M1753 13733 c9 -2 25 -2 35 0 9 3 1 5 -18 5 -19 0 -27 -2 -17 -5z"/>
 <path d="M2308 13733 c39 -2 105 -2 145 0 39 1 7 3 -73 3 -80 0 -112 -2 -72 -3z"/>
 <path d="M1069 13704 c25 -21 31 -34 32 -67 0 -38 1 -40 10 -18 12 30 -4 75 -35 96 -34 25 -40 17 -7 -11z"/>
 <path d="M1394 13625 c0 -60 1 -84 3 -52 2 32 2 81 0 110 -2 29 -3 3 -3 -58z"/>
 <path d="M1467 13723 l32 -4 4 -127 3 -127 2 133 2 132 -37 -2 c-37 -1 -37 -1 -6 -5z"/>
 <path d="M1828 13723 c12 -2 32 -2 45 0 12 2 2 4 -23 4 -25 0 -35 -2 -22 -4z"/>
 <path d="M2622 13724 c14 -4 18 -20 21 -77 l4 -72 -1 75 c-1 67 -3 75 -21 77 -15 1 -16 1 -3 -3z"/>
 <path d="M2780 13698 c0 -4 14 -8 30 -8 17 0 30 2 30 4 0 2 -13 6 -30 8 -16 3 -30 1 -30 -4z"/>
 <path d="M2941 13688 c9 -8 19 -22 22 -33 4 -18 5 -18 6 2 1 14 -7 26 -21 33 -20 10 -21 9 -7 -2z"/>
 <path d="M2127 13643 c8 -50 13 -55 13 -10 0 20 -4 38 -9 42 -6 3 -7 -10 -4 -32z"/>
 <path d="M2772 13630 c0 -19 2 -27 5 -17 2 9 2 25 0 35 -3 9 -5 1 -5 -18z"/>
 <path d="M1192 13640 c3 -10 19 -15 49 -16 35 -1 37 -1 9 3 -19 3 -41 10 -49 16 -11 10 -13 9 -9 -3z"/>
 <path d="M2328 13623 c28 -2 76 -2 105 0 28 2 5 3 -53 3 -58 0 -81 -1 -52 -3z"/>
 <path d="M1661 13593 c-2 -46 34 -83 84 -87 22 -2 31 -2 20 1 -65 13 -89 37 -98 93 -4 21 -5 20 -6 -7z"/>
 <path d="M1971 13568 c0 -32 2 -58 7 -58 4 0 6 19 4 43 -5 70 -10 76 -11 15z"/>
 <path d="M2933 13520 c0 -47 2 -66 4 -42 2 23 2 61 0 85 -2 23 -4 4 -4 -43z"/>
 <path d="M887 13583 c18 -2 50 -2 70 0 21 2 7 4 -32 4 -38 0 -55 -2 -38 -4z"/>
 <path d="M1862 13548 c-2 -34 1 -38 21 -37 15 1 17 3 5 6 -10 2 -18 17 -21 36 -4 31 -4 31 -5 -5z"/>
 <path d="M2284 13535 c1 -18 9 -20 95 -23 52 -1 98 1 102 5 5 4 -36 7 -91 5 -88 -3 -99 -1 -103 15 -3 15 -4 15 -3 -2z"/>
 <path d="M1063 13532 c9 -10 21 -36 26 -58 6 -25 9 -31 10 -16 1 29 -27 92 -42 92 -5 0 -3 -8 6 -18z"/>
 <path d="M1177 13513 c18 -2 50 -2 70 0 21 2 7 4 -32 4 -38 0 -55 -2 -38 -4z"/>
 <path d="M2830 13506 c0 -2 11 -6 25 -8 14 -3 25 -1 25 3 0 5 -11 9 -25 9 -14 0 -25 -2 -25 -4z"/>
 <path d="M2024 13468 l-29 -33 33 29 c30 28 37 36 29 36 -2 0 -16 -15 -33 -32z"/>
 <path d="M2138 13450 c12 -5 27 -20 32 -32 7 -20 9 -20 9 -4 1 21 -26 46 -49 45 -8 0 -5 -4 8 -9z"/>
 <path d="M887 13433 c18 -2 50 -2 70 0 21 2 7 4 -32 4 -38 0 -55 -2 -38 -4z"/>
 <path d="M1503 13400 c0 -25 2 -35 4 -22 2 12 2 32 0 45 -2 12 -4 2 -4 -23z"/>
 <path d="M1632 13408 c33 -9 40 -16 57 -61 21 -56 28 -52 10 4 -14 43 -44 69 -78 68 -22 -1 -20 -3 11 -11z"/>
 <path d="M7410 13389 c-376 -23 -859 -99 -1199 -189 -62 -16 -117 -27 -122 -24 -5 3 -9 1 -9 -4 0 -6 -17 -13 -37 -17 -21 -5 -42 -9 -48 -11 -48 -12 -477 -162 -575 -202 -238 -95 -598 -268 -785 -376 -130 -76 -379 -228 -385 -236 -3 -3 -32 -24 -65 -45 -66 -44 -251 -177 -275 -199 -8 -7 -32 -25 -52 -39 -21 -14 -61 -45 -90 -68 -29 -24 -61 -51 -72 -59 -10 -8 -27 -24 -37 -34 -11 -11 -19 -17 -19 -14 0 3 -17 -11 -37 -31 -21 -20 -63 -58 -93 -83 -31 -26 -80 -71 -110 -100 -30 -29 -79 -74 -107 -100 -29 -26 -53 -50 -53 -55 0 -4 -30 -37 -67 -73 -86 -83 -265 -282 -381 -425 -49 -61 -97 -117 -106 -124 -9 -7 -16 -17 -16 -22 0 -10 -91 -132 -102 -137 -5 -2 -8 -8 -8 -13 0 -7 -39 -63 -83 -119 -20 -26 -168 -254 -202 -314 -16 -28 -67 -114 -115 -196 -5 -8 -34 -64 -66 -125 -31 -60 -61 -113 -66 -116 -5 -3 -8 -8 -7 -10 2 -2 -12 -35 -30 -74 -593 -1228 -785 -2566 -560 -3905 73 -438 226 -981 369 -1315 5 -11 30 -72 57 -135 58 -140 254 -536 317 -643 25 -43 46 -81 46 -86 0 -5 7 -14 15 -21 9 -7 13 -20 10 -29 -3 -8 -3 -12 1 -8 10 10 56 -61 48 -75 -4 -6 -3 -8 3 -5 6 4 17 -6 24 -21 15 -28 142 -218 210 -312 22 -30 57 -80 78 -110 21 -30 66 -88 99 -127 34 -40 66 -81 71 -92 11 -20 24 -35 159 -187 45 -50 78 -95 74 -99 -4 -5 -2 -5 5 -2 6 4 13 3 15 -3 4 -12 215 -227 352 -358 65 -62 104 -107 100 -114 -4 -7 -3 -8 5 -4 7 5 31 -9 59 -36 64 -58 138 -119 174 -142 16 -10 27 -25 24 -32 -3 -7 0 -11 7 -8 7 2 39 -18 72 -44 81 -66 363 -268 455 -327 41 -27 78 -53 82 -59 5 -7 8 -7 8 -1 0 6 3 6 8 0 4 -6 41 -30 82 -54 41 -25 77 -47 80 -50 5 -6 30 -20 152 -84 32 -16 55 -35 51 -40 -3 -6 -1 -7 4 -4 6 4 85 -32 177 -78 153 -78 440 -206 561 -250 28 -10 55 -22 60 -25 17 -12 440 -146 580 -184 705 -191 1423 -259 2165 -205 531 38 1049 142 1565 314 232 77 533 199 724 292 42 21 78 38 81 38 3 0 12 5 20 10 38 24 105 53 114 48 5 -4 6 -2 3 4 -8 13 61 46 76 37 7 -4 9 -4 5 1 -4 4 32 30 80 56 48 27 94 53 102 58 8 5 51 31 95 58 78 46 405 261 415 273 3 3 50 39 105 79 228 170 399 317 630 541 186 181 369 376 460 492 33 42 63 74 68 71 4 -2 7 2 7 9 0 7 15 29 33 50 17 20 64 80 102 133 120 166 152 205 160 197 5 -4 5 -2 2 5 -7 10 91 165 118 188 7 6 12 14 13 18 1 4 40 73 87 153 48 80 103 175 122 212 20 37 43 75 51 85 8 9 12 17 7 17 -4 0 -3 6 3 13 16 18 123 236 176 357 26 58 53 117 61 132 8 14 15 31 15 37 0 6 11 34 24 63 55 123 165 445 221 648 156 560 229 1055 242 1625 14 656 -60 1235 -242 1903 -41 149 -143 452 -178 529 -7 16 -6 27 4 40 11 15 11 16 -1 6 -11 -10 -20 3 -52 80 -22 50 -46 110 -54 132 -27 73 -226 478 -283 573 -17 29 -31 54 -31 56 0 2 -36 63 -80 135 -44 73 -80 136 -80 141 0 4 -3 10 -8 12 -6 3 -55 73 -217 313 -19 28 -40 57 -47 65 -7 8 -53 67 -103 130 -49 63 -108 136 -130 161 -22 26 -56 66 -75 89 -37 45 -54 64 -179 195 -42 44 -86 92 -97 105 -37 42 -151 149 -388 365 -6 6 -53 43 -103 83 -51 41 -93 78 -93 83 0 5 -7 9 -15 9 -8 0 -15 4 -15 8 0 5 -11 15 -25 22 -17 9 -24 19 -20 29 3 8 3 12 -1 8 -6 -6 -69 26 -84 42 -3 4 -27 22 -55 41 -27 18 -90 64 -140 100 -49 36 -102 72 -117 79 -15 8 -37 22 -47 33 -11 10 -23 18 -27 18 -3 0 -18 8 -32 19 -15 10 -45 29 -68 42 -22 13 -78 47 -123 74 -137 83 -461 252 -591 308 -19 8 -62 27 -95 43 -33 15 -64 28 -70 30 -5 1 -55 21 -110 44 -110 46 -411 151 -519 182 -38 10 -74 22 -80 26 -6 3 -17 7 -26 8 -8 1 -76 18 -150 38 -259 70 -646 140 -935 170 -331 35 -757 45 -1085 25z"/>
 <path d="M2182 13360 c0 -19 2 -27 5 -17 2 9 2 25 0 35 -3 9 -5 1 -5 -18z"/>
 <path d="M1968 13260 c42 -10 70 -35 81 -74 5 -17 10 -23 10 -13 3 50 -49 98 -102 96 -15 -1 -12 -4 11 -9z"/>
 <path d="M1785 13251 c21 -4 35 -16 47 -41 10 -19 18 -29 18 -22 0 17 -20 55 -34 64 -6 4 -22 7 -36 7 -22 -1 -22 -2 5 -8z"/>
 </g>
<g id="layer102" fill="#fbfdfc" stroke="none">
 <path d="M2010 13741 c57 -7 100 -25 100 -41 0 -6 6 -10 12 -10 7 0 0 12 -14 27 -23 23 -37 27 -90 29 l-63 2 55 -7z"/>
 <path d="M838 13733 c23 -2 61 -2 85 0 23 2 4 4 -43 4 -47 0 -66 -2 -42 -4z"/>
 <path d="M1753 13733 c9 -2 25 -2 35 0 9 3 1 5 -18 5 -19 0 -27 -2 -17 -5z"/>
 <path d="M2308 13733 c39 -2 105 -2 145 0 39 1 7 3 -73 3 -80 0 -112 -2 -72 -3z"/>
 <path d="M1069 13704 c25 -21 31 -34 32 -67 0 -38 1 -40 10 -18 12 30 -4 75 -35 96 -34 25 -40 17 -7 -11z"/>
 <path d="M1394 13625 c0 -60 1 -84 3 -52 2 32 2 81 0 110 -2 29 -3 3 -3 -58z"/>
 <path d="M1467 13723 l32 -4 4 -127 3 -127 2 133 2 132 -37 -2 c-37 -1 -37 -1 -6 -5z"/>
 <path d="M1828 13723 c12 -2 32 -2 45 0 12 2 2 4 -23 4 -25 0 -35 -2 -22 -4z"/>
 <path d="M2622 13724 c14 -4 18 -20 21 -77 l4 -72 -1 75 c-1 67 -3 75 -21 77 -15 1 -16 1 -3 -3z"/>
 <path d="M2780 13698 c0 -4 14 -8 30 -8 17 0 30 2 30 4 0 2 -13 6 -30 8 -16 3 -30 1 -30 -4z"/>
 <path d="M2941 13688 c9 -8 19 -22 22 -33 4 -18 5 -18 6 2 1 14 -7 26 -21 33 -20 10 -21 9 -7 -2z"/>
 <path d="M2127 13643 c8 -50 13 -55 13 -10 0 20 -4 38 -9 42 -6 3 -7 -10 -4 -32z"/>
 <path d="M2772 13630 c0 -19 2 -27 5 -17 2 9 2 25 0 35 -3 9 -5 1 -5 -18z"/>
 <path d="M1192 13640 c3 -10 19 -15 49 -16 35 -1 37 -1 9 3 -19 3 -41 10 -49 16 -11 10 -13 9 -9 -3z"/>
 <path d="M2328 13623 c28 -2 76 -2 105 0 28 2 5 3 -53 3 -58 0 -81 -1 -52 -3z"/>
 <path d="M1661 13593 c-2 -46 34 -83 84 -87 22 -2 31 -2 20 1 -65 13 -89 37 -98 93 -4 21 -5 20 -6 -7z"/>
 <path d="M1971 13568 c0 -32 2 -58 7 -58 4 0 6 19 4 43 -5 70 -10 76 -11 15z"/>
 <path d="M2933 13520 c0 -47 2 -66 4 -42 2 23 2 61 0 85 -2 23 -4 4 -4 -43z"/>
 <path d="M887 13583 c18 -2 50 -2 70 0 21 2 7 4 -32 4 -38 0 -55 -2 -38 -4z"/>
 <path d="M1862 13548 c-2 -34 1 -38 21 -37 15 1 17 3 5 6 -10 2 -18 17 -21 36 -4 31 -4 31 -5 -5z"/>
 <path d="M2284 13535 c1 -18 9 -20 95 -23 52 -1 98 1 102 5 5 4 -36 7 -91 5 -88 -3 -99 -1 -103 15 -3 15 -4 15 -3 -2z"/>
 <path d="M1063 13532 c9 -10 21 -36 26 -58 6 -25 9 -31 10 -16 1 29 -27 92 -42 92 -5 0 -3 -8 6 -18z"/>
 <path d="M1177 13513 c18 -2 50 -2 70 0 21 2 7 4 -32 4 -38 0 -55 -2 -38 -4z"/>
 <path d="M2830 13506 c0 -2 11 -6 25 -8 14 -3 25 -1 25 3 0 5 -11 9 -25 9 -14 0 -25 -2 -25 -4z"/>
 <path d="M2024 13468 l-29 -33 33 29 c30 28 37 36 29 36 -2 0 -16 -15 -33 -32z"/>
 <path d="M2138 13450 c12 -5 27 -20 32 -32 7 -20 9 -20 9 -4 1 21 -26 46 -49 45 -8 0 -5 -4 8 -9z"/>
 <path d="M887 13433 c18 -2 50 -2 70 0 21 2 7 4 -32 4 -38 0 -55 -2 -38 -4z"/>
 <path d="M1503 13400 c0 -25 2 -35 4 -22 2 12 2 32 0 45 -2 12 -4 2 -4 -23z"/>
 <path d="M1632 13408 c33 -9 40 -16 57 -61 21 -56 28 -52 10 4 -14 43 -44 69 -78 68 -22 -1 -20 -3 11 -11z"/>
 <path d="M2182 13360 c0 -19 2 -27 5 -17 2 9 2 25 0 35 -3 9 -5 1 -5 -18z"/>
 <path d="M1968 13260 c42 -10 70 -35 81 -74 5 -17 10 -23 10 -13 3 50 -49 98 -102 96 -15 -1 -12 -4 11 -9z"/>
 <path d="M1785 13251 c21 -4 35 -16 47 -41 10 -19 18 -29 18 -22 0 17 -20 55 -34 64 -6 4 -22 7 -36 7 -22 -1 -22 -2 5 -8z"/>
 <path d="M7355 13109 c-953 -76 -1788 -334 -2649 -818 -21 -12 -125 -77 -230 -145 -409 -262 -803 -585 -1126 -923 -154 -161 -195 -207 -292 -323 -846 -1022 -1333 -2225 -1428 -3535 -14 -190 -14 -677 -1 -860 69 -915 306 -1725 735 -2518 247 -456 593 -936 925 -1282 53 -55 103 -109 112 -120 35 -42 320 -306 414 -384 431 -353 786 -588 1225 -807 699 -349 1393 -548 2195 -631 245 -25 910 -25 1150 0 806 85 1489 280 2177 623 195 97 298 153 443 243 305 188 562 373 821 594 167 141 502 466 595 577 30 35 75 87 100 115 46 50 232 286 320 407 256 348 544 870 711 1288 207 518 332 995 402 1530 37 286 41 368 41 800 -1 465 -7 567 -61 920 -130 860 -434 1665 -908 2405 -122 189 -314 454 -428 589 -33 39 -83 98 -110 131 -149 179 -491 515 -719 705 -160 134 -451 350 -581 430 -29 18 -93 59 -143 90 -403 257 -1006 524 -1507 669 -342 100 -709 171 -1108 217 -168 19 -892 28 -1075 13z m863 -299 c775 -56 1492 -251 2187 -595 232 -115 512 -273 630 -356 28 -20 104 -73 170 -119 444 -310 912 -755 1244 -1184 161 -208 338 -466 423 -616 14 -25 47 -81 73 -125 77 -131 258 -508 327 -680 174 -433 283 -825 358 -1290 77 -474 90 -1087 34 -1570 -81 -699 -257 -1298 -569 -1930 -281 -570 -622 -1054 -1055 -1500 -455 -468 -890 -797 -1465 -1109 -313 -169 -792 -367 -1095 -453 -791 -222 -1506 -287 -2285 -207 -1014 103 -2002 484 -2840 1092 -387 282 -714 586 -1051 978 -418 487 -800 1145 -1030 1776 -170 464 -271 912 -331 1458 -25 233 -25 861 0 1105 100 962 398 1825 899 2604 244 378 477 668 788 980 261 263 348 340 627 557 137 107 481 335 638 423 33 19 76 43 95 54 66 37 325 165 440 217 568 257 1246 430 1892 484 199 17 696 20 896 6z"/>
 <path d="M8331 12470 c-41 -11 -94 -32 -118 -46 -127 -74 -213 -236 -213 -398 1 -230 134 -389 389 -467 68 -20 88 -21 242 -16 138 4 171 3 188 -10 45 -31 54 -17 73 117 10 68 16 125 15 126 -1 0 -13 4 -27 7 -22 5 -29 1 -45 -30 -45 -83 -140 -146 -242 -159 -64 -8 -166 21 -234 65 -154 102 -192 345 -87 554 83 166 252 241 426 188 38 -11 74 -27 80 -34 16 -18 -20 -243 -42 -265 -12 -12 -39 -18 -96 -20 -77 -4 -80 -5 -80 -28 0 -13 3 -24 8 -24 4 0 111 -16 237 -34 127 -19 231 -33 232 -32 1 0 4 12 7 26 5 22 1 28 -37 45 -37 18 -42 24 -45 58 -2 20 4 85 13 144 8 58 14 107 12 109 -14 14 -207 96 -267 114 -111 32 -290 37 -389 10z"/>
 <path d="M6765 12425 c-126 -19 -243 -35 -258 -35 -25 0 -28 -3 -25 -27 3 -25 8 -28 43 -31 67 -4 84 -11 99 -40 7 -15 26 -117 41 -227 15 -110 35 -252 44 -315 9 -63 14 -128 11 -145 -6 -33 -59 -75 -96 -75 -16 0 -24 -6 -24 -17 1 -41 11 -44 111 -33 52 6 149 14 216 20 383 30 591 118 672 283 121 249 10 552 -237 645 -59 22 -85 26 -217 28 -129 3 -183 -2 -380 -31z m445 -61 c145 -65 229 -228 218 -425 -6 -97 -30 -162 -87 -230 -37 -45 -129 -94 -212 -114 -80 -19 -189 -20 -189 -2 0 6 -23 169 -50 362 -28 192 -50 359 -50 371 0 53 72 75 222 69 68 -3 101 -10 148 -31z"/>
 <path d="M5976 12231 c-3 -5 -72 -35 -153 -66 -209 -82 -313 -154 -395 -272 -66 -97 -87 -243 -52 -377 18 -68 82 -166 141 -216 100 -82 243 -119 387 -100 165 23 267 69 383 174 29 26 68 52 88 57 19 6 35 16 35 24 0 8 -16 51 -36 97 -19 46 -39 93 -44 106 -10 22 -26 28 -46 14 -6 -4 -13 -38 -16 -77 -12 -166 -103 -264 -274 -294 -208 -38 -389 120 -434 379 -29 164 52 321 205 396 51 25 72 29 140 29 81 0 112 -11 212 -75 17 -11 27 -12 48 -2 l26 12 -30 38 c-50 64 -151 162 -166 162 -8 0 -16 -4 -19 -9z"/>
 <path d="M9658 12141 c-89 -29 -149 -94 -216 -235 -29 -59 -52 -108 -52 -110 0 -2 -29 -65 -65 -140 -76 -158 -89 -170 -161 -144 -43 15 -45 15 -55 -4 -7 -13 -7 -24 -1 -30 11 -11 390 -188 403 -188 5 0 14 10 20 22 9 17 9 23 0 26 -6 2 -25 15 -40 28 -54 45 -51 56 60 298 57 121 113 238 126 258 67 108 191 129 337 57 78 -39 113 -71 142 -134 29 -60 30 -104 6 -182 -29 -89 -184 -413 -213 -445 -29 -31 -82 -38 -121 -17 -18 9 -24 8 -35 -7 -24 -33 -42 -21 225 -145 46 -22 90 -39 97 -39 18 0 32 43 15 48 -6 2 -27 18 -46 34 -50 44 -46 70 42 260 42 90 84 182 95 205 76 167 57 306 -56 418 -102 101 -251 165 -395 171 -47 2 -97 0 -112 -5z"/>
 <path d="M4670 11569 c-19 -16 -85 -65 -147 -109 -129 -93 -207 -175 -256 -268 -48 -95 -61 -149 -54 -240 9 -139 67 -248 173 -328 82 -61 151 -86 256 -92 75 -4 100 -1 170 21 170 54 294 146 383 286 24 37 47 61 67 69 22 8 29 16 24 27 -9 23 -137 195 -145 195 -4 0 -15 -6 -25 -13 -17 -12 -17 -18 -6 -53 8 -21 13 -69 13 -105 -2 -115 -69 -210 -188 -266 -52 -24 -72 -28 -150 -28 -85 0 -93 2 -155 37 -87 49 -158 125 -206 223 -37 74 -39 84 -39 169 0 78 4 99 27 148 35 75 107 151 175 184 69 34 162 36 243 5 49 -19 56 -19 77 -6 28 18 28 24 6 42 -28 22 -147 99 -179 116 -28 14 -31 14 -64 -14z"/>
 <path d="M11004 11489 c-18 -20 -17 -21 24 -59 47 -44 60 -80 43 -116 -10 -23 -80 -112 -355 -449 -49 -60 -91 -112 -92 -114 -6 -7 -193 149 -205 170 -13 26 -4 79 23 132 20 40 20 40 0 60 -20 19 -20 19 -96 -94 -71 -106 -74 -114 -59 -131 9 -10 27 -18 40 -18 16 0 79 -45 186 -131 89 -73 224 -182 300 -243 79 -63 140 -120 143 -132 3 -13 14 -30 25 -40 18 -16 22 -12 113 82 92 97 94 99 76 118 -18 19 -19 18 -58 -12 -72 -58 -134 -65 -181 -21 -17 16 -123 105 -150 125 -5 4 382 486 435 541 50 53 77 55 137 9 43 -33 46 -34 61 -17 9 10 16 20 16 23 0 3 -66 59 -147 124 -82 65 -173 140 -204 166 -56 47 -56 48 -75 27z"/>
 <path d="M7515 11174 c-369 -29 -700 -96 -1040 -209 -461 -153 -825 -345 -1220 -642 -189 -141 -278 -218 -435 -375 -355 -352 -616 -719 -841 -1183 -90 -186 -107 -226 -188 -455 -232 -656 -290 -1406 -166 -2115 195 -1112 834 -2105 1770 -2754 319 -222 684 -406 1055 -532 807 -275 1723 -296 2535 -59 879 258 1627 768 2191 1494 38 49 76 100 84 112 8 12 42 62 76 111 271 392 492 896 608 1383 69 290 104 560 113 875 15 530 -68 1037 -254 1560 -126 352 -358 783 -579 1075 -19 25 -47 63 -63 85 -16 22 -38 49 -48 60 -10 11 -44 52 -77 90 -216 259 -561 565 -856 762 -288 192 -555 330 -865 448 -335 127 -657 206 -1020 251 -124 15 -658 27 -780 18z m687 -360 c223 -22 481 -70 653 -121 100 -30 271 -86 315 -103 441 -173 798 -380 1140 -664 127 -105 349 -326 459 -456 528 -625 826 -1311 923 -2125 20 -167 17 -704 -5 -870 -61 -461 -172 -836 -367 -1242 -169 -352 -411 -701 -670 -968 -331 -342 -569 -526 -985 -762 -227 -128 -605 -277 -895 -352 -798 -204 -1684 -142 -2435 171 -1094 456 -1909 1351 -2258 2478 -124 398 -174 770 -164 1222 9 425 68 768 203 1168 248 737 744 1412 1379 1880 434 320 927 547 1443 666 419 96 829 121 1264 78z"/>
 <path d="M5400 9774 c-91 -19 -177 -53 -213 -83 -44 -37 -102 -131 -129 -209 -20 -59 -23 -86 -23 -217 0 -125 4 -163 23 -230 83 -294 249 -570 551 -918 98 -113 413 -424 539 -532 l82 -70 -5 -320 c-3 -176 -10 -598 -16 -937 -6 -340 -8 -622 -5 -627 4 -5 37 -26 74 -47 37 -20 103 -58 147 -84 174 -102 493 -280 503 -280 8 0 10 31 6 98 -2 53 -11 309 -19 567 -8 259 -20 624 -26 813 -7 188 -10 345 -7 348 7 6 96 -46 149 -87 19 -15 58 -36 86 -47 28 -11 72 -34 98 -51 26 -18 61 -35 77 -38 16 -3 34 -13 41 -23 7 -9 23 -20 37 -23 14 -3 33 -12 44 -20 17 -13 21 -70 57 -933 20 -505 41 -1013 45 -1127 l7 -209 36 -23 c20 -12 185 -100 366 -195 182 -95 338 -178 347 -184 9 -6 19 -8 21 -6 2 3 -6 178 -19 390 -93 1585 -108 1869 -101 1876 3 3 30 -3 59 -15 29 -11 85 -30 125 -41 39 -11 73 -25 75 -31 2 -5 17 -11 33 -13 17 -2 29 -9 28 -15 -2 -6 3 -11 11 -11 7 0 19 -6 25 -14 7 -8 34 -17 62 -21 27 -4 49 -11 49 -17 0 -6 7 -7 16 -4 8 3 28 -1 44 -9 34 -18 33 -12 55 -480 9 -181 18 -339 20 -351 3 -15 58 -46 227 -129 123 -59 281 -137 352 -172 l129 -65 -6 54 c-4 29 -20 204 -37 388 -17 184 -34 368 -39 408 -9 88 -3 95 77 97 65 2 139 -22 172 -55 16 -16 30 -21 53 -17 17 2 42 -2 56 -9 14 -8 33 -14 41 -14 8 0 30 -9 48 -20 29 -18 37 -19 60 -8 15 7 48 13 74 13 48 0 62 17 19 23 -26 4 -40 30 -22 42 11 6 -18 20 -51 24 -3 1 -10 4 -14 9 -4 4 -18 7 -31 7 -12 0 -23 4 -23 9 0 5 -18 12 -40 16 -41 7 -56 25 -21 25 27 0 33 13 16 37 -10 14 -22 19 -40 16 -27 -6 -31 -13 -14 -30 6 -6 8 -16 5 -21 -8 -13 -42 -4 -57 14 -6 8 -23 14 -37 14 -50 0 -142 36 -142 56 0 17 -21 23 -43 12 -9 -5 -23 -6 -29 -2 -7 4 -23 9 -36 10 -36 4 -52 23 -52 60 0 18 -18 223 -40 456 -46 501 -58 664 -67 939 -4 151 -3 208 5 213 7 4 12 25 12 47 0 21 4 39 8 39 11 0 131 -151 200 -252 130 -192 197 -401 172 -541 -14 -75 -47 -142 -92 -184 -53 -50 -127 -92 -175 -99 l-45 -7 6 -96 c15 -223 14 -218 52 -226 19 -3 39 -3 44 0 6 4 77 1 158 -5 429 -33 693 81 757 326 21 81 19 136 -9 245 -85 334 -420 745 -920 1129 l-111 86 -1 50 c-1 28 -4 57 -9 63 -10 17 1 84 37 226 84 339 218 566 418 711 115 84 215 134 358 179 28 9 52 20 52 25 0 21 -334 29 -442 10 -175 -31 -348 -103 -471 -198 -64 -49 -190 -189 -246 -272 -59 -89 -131 -227 -162 -313 -7 -22 -21 -43 -30 -48 -10 -5 -20 -27 -24 -49 -4 -23 -10 -40 -13 -38 -4 2 -113 56 -242 120 -129 64 -287 138 -350 164 -164 67 -437 158 -581 193 -231 56 -400 79 -269 37 390 -126 918 -398 1290 -664 85 -61 95 -71 94 -97 -2 -48 -11 -131 -28 -255 -9 -63 -20 -180 -26 -260 -18 -260 -15 -387 30 -1214 5 -98 7 -182 4 -187 -13 -22 -95 12 -149 62 -22 21 -71 51 -110 68 -45 19 -70 35 -70 46 0 10 -29 29 -80 53 -114 55 -155 81 -159 106 -2 11 -10 82 -16 156 -43 487 -169 973 -355 1365 -261 550 -683 963 -1188 1164 -145 58 -256 88 -185 50 72 -39 100 -56 163 -107 386 -309 691 -934 804 -1652 32 -202 60 -590 42 -590 -5 0 -14 7 -21 15 -7 8 -21 15 -32 15 -11 0 -34 11 -51 24 -59 45 -169 105 -183 99 -8 -3 -14 0 -14 6 0 7 -15 19 -32 27 -69 32 -101 51 -112 66 -6 9 -25 18 -41 22 -17 4 -36 16 -43 27 -8 13 -20 128 -32 322 -22 340 -32 423 -66 587 -71 344 -176 609 -345 875 -89 140 -121 180 -227 289 -258 264 -535 370 -812 310z m112 -338 c345 -142 599 -569 682 -1146 18 -120 36 -339 36 -414 l-1 -51 -174 177 c-180 184 -361 394 -453 526 -30 42 -91 154 -137 247 -171 348 -214 566 -127 648 46 43 93 46 174 13z"/>
 <path d="M8280 6806 c58 -28 151 -72 207 -96 57 -25 104 -51 106 -60 2 -9 20 -21 41 -27 l36 -11 0 58 c0 74 -17 94 -72 87 -43 -6 -95 6 -279 64 -70 21 -130 39 -135 38 -5 0 38 -24 96 -53z"/>
 <path d="M10330 5862 c0 -5 12 -12 28 -16 15 -3 38 -8 52 -11 20 -5 19 -3 -6 8 -48 23 -74 29 -74 19z"/>
 <path d="M9592 5851 c2 -7 7 -12 11 -12 12 1 9 15 -3 20 -7 2 -11 -2 -8 -8z"/>
 <path d="M10045 5799 c-3 -3 -3 -16 0 -28 2 -11 -1 -21 -6 -21 -6 0 -8 -4 -4 -9 3 -6 19 -8 35 -6 16 2 32 -1 35 -6 4 -5 13 -9 21 -9 17 0 9 47 -12 69 -13 15 -62 22 -69 10z"/>
 <path d="M10313 5715 c-18 -20 3 -30 22 -11 8 8 15 17 15 20 0 11 -25 5 -37 -9z"/>
 <path d="M2694 8458 c-7 -18 -28 -82 -49 -141 -29 -85 -42 -110 -60 -117 -13 -5 -77 -16 -144 -24 -67 -9 -145 -24 -174 -34 -58 -19 -67 -37 -47 -97 16 -50 44 -53 119 -16 60 31 180 65 207 59 10 -2 -2 -36 -46 -120 -33 -64 -60 -126 -60 -138 0 -37 83 -99 116 -86 7 3 19 31 28 63 36 134 70 221 105 273 l38 55 104 26 c57 14 108 23 112 19 11 -10 -39 -119 -58 -126 -9 -4 -35 -1 -57 5 -52 16 -71 0 -72 -61 -1 -41 0 -43 30 -44 62 -2 66 -12 34 -84 -16 -36 -30 -73 -30 -83 0 -30 20 -59 37 -53 9 4 26 0 39 -9 13 -8 30 -12 38 -9 15 6 46 62 46 84 0 31 36 83 64 95 54 23 213 -1 370 -54 110 -37 136 -32 136 28 0 80 -98 320 -125 310 -6 -2 -9 -27 -7 -56 7 -118 -31 -170 -116 -160 -71 9 -212 56 -219 73 -7 20 62 184 103 241 l33 47 -21 38 c-44 77 -71 83 -109 22 -11 -19 -40 -45 -63 -59 -42 -24 -202 -73 -211 -63 -11 10 19 74 49 106 l31 33 -30 25 c-36 29 -99 64 -117 64 -7 0 -18 -15 -24 -32z"/>
 <path d="M3378 8397 c-217 -196 -212 -191 -189 -201 16 -7 55 2 163 39 79 26 148 52 154 57 26 20 -35 148 -69 148 -7 0 -33 -19 -59 -43z"/>
 <path d="M12164 8176 c-10 -26 3 -277 16 -316 19 -58 63 -113 112 -143 39 -24 57 -29 107 -28 113 1 262 41 274 73 2 7 7 11 10 8 25 -24 -157 -234 -232 -266 -20 -9 -43 -19 -51 -23 -47 -23 -86 -188 -60 -255 l11 -30 40 78 c52 102 107 177 183 250 70 68 80 61 46 -31 -25 -67 -20 -75 53 -81 l54 -4 6 89 c3 50 21 157 40 239 51 214 50 209 33 223 -8 7 -37 13 -63 14 l-48 2 -3 -97 c-1 -54 -6 -98 -11 -98 -4 0 -13 11 -19 25 -18 39 -33 39 -97 1 -32 -20 -74 -39 -92 -42 -53 -10 -125 1 -140 22 -27 37 -60 205 -49 249 9 34 64 59 166 75 147 22 133 34 -65 54 -82 8 -165 18 -182 22 -25 5 -34 3 -39 -10z"/>
 <path d="M12846 8145 c-8 -22 8 -88 37 -155 39 -88 40 -97 17 -103 -11 -3 -24 -16 -29 -29 -16 -43 -44 -215 -38 -232 9 -23 83 -22 95 2 5 9 19 65 32 125 22 103 22 108 5 121 -15 10 -17 21 -11 56 9 57 33 100 55 100 27 0 62 -44 68 -87 3 -24 -7 -84 -26 -163 -35 -141 -38 -185 -15 -194 27 -10 46 -7 41 7 -3 8 8 60 24 118 79 281 26 387 -222 444 -19 5 -28 2 -33 -10z"/>
 <path d="M13187 7874 c-23 -24 24 -160 59 -168 36 -9 126 25 154 59 12 15 12 19 -5 31 -10 8 -28 14 -38 14 -11 0 -42 13 -68 30 -53 32 -91 45 -102 34z"/>
 <path d="M3100 7785 c-9 -11 -10 -45 -2 -146 9 -121 12 -133 35 -157 22 -21 35 -25 84 -25 64 0 133 24 133 46 0 16 -70 106 -137 178 -23 24 -55 61 -71 81 -25 32 -32 36 -42 23z"/>
 <path d="M13158 7533 c-9 -10 -22 -32 -31 -48 -26 -52 -51 -67 -122 -72 -36 -3 -65 -2 -65 3 0 5 20 34 45 64 l45 55 -71 3 c-91 4 -103 -5 -83 -60 8 -23 13 -42 12 -44 -2 -1 -28 -6 -58 -11 -70 -10 -73 -27 -25 -107 19 -32 34 -60 32 -62 -2 -2 -104 -19 -228 -39 -123 -20 -232 -38 -241 -41 -24 -7 -33 -43 -15 -61 13 -13 43 -13 263 6 250 22 413 46 534 78 l65 18 6 65 c4 36 10 94 14 130 6 58 5 68 -17 99 -28 42 -40 47 -60 24z m22 -159 c0 -36 -64 -68 -199 -98 -82 -19 -91 -15 -91 35 0 42 19 51 102 44 52 -4 86 -2 118 8 50 17 70 20 70 11z"/>
 <path d="M3257 6683 c-2 -5 -14 -42 -27 -83 -28 -94 -67 -172 -121 -240 -40 -51 -43 -53 -52 -32 -7 16 -5 34 7 67 20 50 16 74 -15 93 -38 24 -47 -2 -79 -204 -17 -104 -37 -224 -45 -268 -8 -43 -15 -89 -15 -102 0 -27 29 -49 78 -59 l32 -7 0 104 c0 57 3 113 6 126 7 26 29 29 38 6 7 -19 31 -16 125 17 58 21 68 22 125 10 69 -14 81 -22 104 -65 24 -46 23 -199 -2 -246 -39 -71 -119 -109 -233 -110 -40 0 -73 -4 -73 -10 0 -28 99 -47 291 -55 143 -6 147 -6 152 15 10 40 -12 264 -32 323 -31 90 -78 170 -114 195 -44 29 -140 30 -222 2 -32 -11 -68 -20 -79 -20 -12 0 -32 -7 -45 -17 -24 -16 -24 -16 -17 11 15 59 74 145 158 228 97 97 115 134 104 225 -9 80 -32 125 -49 96z"/>
 <path d="M2750 6503 c-41 -57 -41 -58 -18 -64 13 -4 46 -7 74 -8 38 -1 53 3 58 15 9 24 -42 114 -65 114 -4 0 -26 -26 -49 -57z"/>
 <path d="M2419 6464 c-7 -8 -14 -37 -15 -64 -1 -26 -5 -62 -9 -78 -6 -30 -6 -30 -76 -29 -98 1 -108 -11 -74 -86 15 -31 30 -59 35 -62 5 -3 23 1 39 10 55 28 58 24 67 -87 5 -57 8 -110 9 -118 0 -8 -43 -42 -96 -75 -90 -57 -95 -62 -87 -85 12 -33 38 -60 56 -60 8 0 35 18 59 41 24 22 49 38 56 36 8 -3 11 -24 9 -64 -5 -91 24 -128 69 -88 14 13 15 23 7 58 -5 23 -8 66 -5 95 3 48 8 58 45 92 32 29 42 45 42 69 0 31 -1 31 -47 28 l-48 -2 -3 63 c-4 78 14 112 58 112 40 0 59 34 34 61 -9 10 -23 19 -29 19 -30 0 -37 28 -21 84 22 75 20 91 -15 120 -36 30 -42 31 -60 10z"/>
 <path d="M2670 6385 c-7 -8 -17 -59 -22 -113 -5 -53 -11 -103 -13 -109 -3 -9 -18 -11 -48 -7 -40 6 -46 4 -70 -26 -34 -40 -25 -59 38 -80 l48 -15 1 -120 c1 -104 4 -126 24 -163 38 -72 199 -161 242 -134 11 6 16 31 18 88 3 85 -14 148 -47 178 -18 17 -19 16 -26 -26 -14 -92 -35 -116 -93 -103 -41 9 -67 58 -65 125 0 30 13 118 28 195 47 249 50 325 11 325 -8 0 -19 -7 -26 -15z"/>
 <path d="M2790 6310 c-6 -11 -19 -93 -30 -183 -18 -154 -18 -163 -1 -180 20 -21 54 -12 84 20 22 26 44 134 49 242 l3 83 -47 19 c-47 18 -48 18 -58 -1z"/>
 <path d="M12947 6282 c-16 -17 -87 -219 -87 -246 0 -6 -16 -28 -36 -47 -19 -18 -47 -52 -61 -75 -26 -40 -27 -41 -55 -27 -23 12 -27 19 -22 36 4 12 24 81 45 152 l38 130 -34 31 c-39 36 -88 59 -108 51 -10 -4 -16 -33 -20 -96 -7 -95 -33 -229 -47 -245 -5 -5 -63 -2 -137 7 -212 26 -298 30 -312 13 -9 -11 -10 -41 -2 -125 8 -96 13 -118 42 -170 46 -84 59 -86 59 -8 0 71 15 134 38 160 12 13 31 17 96 17 75 0 151 -11 163 -23 2 -3 -16 -54 -42 -114 -25 -59 -53 -125 -62 -145 -8 -20 -28 -49 -44 -64 -36 -34 -37 -62 -4 -100 28 -32 46 -28 70 16 8 14 55 100 106 193 50 92 96 170 101 173 5 3 20 -3 32 -15 31 -30 42 -27 73 20 26 40 67 69 97 69 30 0 25 -20 -17 -67 -24 -27 -49 -62 -56 -79 -7 -16 -37 -48 -67 -72 -37 -29 -54 -50 -54 -66 0 -22 57 -86 76 -86 6 0 25 21 41 48 17 26 57 90 91 143 89 140 109 227 71 317 -12 29 -12 34 6 52 30 29 86 49 113 39 20 -8 22 -15 22 -82 0 -72 -2 -78 -67 -203 -36 -71 -89 -175 -117 -231 -28 -56 -62 -113 -75 -127 -23 -24 -23 -26 -7 -51 19 -29 54 -33 63 -7 3 9 36 60 73 112 37 52 79 118 93 146 36 72 79 103 194 143 125 43 223 87 223 100 0 5 -4 12 -9 16 -5 3 -12 18 -16 34 -3 16 -17 39 -31 52 l-24 23 -28 -22 c-39 -31 -203 -124 -209 -119 -2 3 0 22 6 44 26 94 5 195 -60 289 -39 55 -86 104 -100 104 -3 0 -13 -8 -22 -18z"/>
 <path d="M13235 5676 c-65 -17 -81 -25 -83 -42 -3 -24 56 -118 78 -122 8 -1 26 15 40 35 13 21 37 54 52 73 32 40 38 81 11 79 -10 -1 -54 -11 -98 -23z"/>
 <path d="M13020 5545 c-12 -14 -20 -133 -12 -168 11 -44 112 -62 150 -27 28 26 28 30 -7 62 -15 15 -31 40 -34 56 -7 33 -52 92 -72 92 -7 0 -18 -7 -25 -15z"/>
 <path d="M12587 5363 c-12 -11 -7 -117 6 -143 25 -51 94 -34 157 38 33 37 38 48 28 59 -8 10 -23 13 -44 10 -22 -4 -46 2 -78 19 -48 25 -59 28 -69 17z"/>
 <path d="M3482 4932 c-9 -7 -10 -15 -3 -35 6 -14 13 -61 16 -104 4 -43 9 -89 11 -102 3 -25 -4 -34 -68 -76 -53 -35 -65 -32 -73 16 -4 22 -13 43 -21 46 -17 6 -109 -15 -148 -34 l-28 -15 35 -36 c66 -68 71 -124 16 -154 -44 -26 -57 -23 -73 17 -18 43 -50 46 -116 13 -57 -29 -61 -54 -20 -116 17 -25 38 -71 47 -102 17 -61 59 -160 67 -160 3 0 16 5 30 11 27 13 50 62 61 133 7 40 52 96 78 96 7 0 20 -12 27 -27 8 -16 16 -30 17 -32 2 -2 11 3 20 11 10 9 29 18 43 20 24 3 25 6 22 55 -6 81 4 109 51 143 22 16 46 30 53 30 6 0 14 -18 17 -40 3 -23 13 -53 22 -67 17 -25 18 -26 31 -8 11 15 14 72 14 261 l0 242 -44 11 c-53 13 -67 13 -84 3z"/>
 <path d="M3733 4725 l-20 -14 22 -68 c13 -37 37 -95 53 -128 58 -116 65 -225 14 -225 -19 0 -26 11 -61 93 -23 54 -41 59 -85 24 l-29 -24 31 -87 c18 -48 32 -93 32 -101 0 -8 -14 -22 -30 -30 l-31 -16 -14 35 c-8 20 -15 49 -15 65 l0 29 -82 -24 c-78 -24 -262 -107 -301 -136 -16 -12 -16 -18 14 -113 36 -116 118 -282 163 -330 39 -42 115 -105 127 -105 4 0 27 27 50 61 22 33 69 91 103 127 64 69 104 121 125 159 10 20 7 25 -44 57 -62 40 -78 75 -50 106 28 31 50 25 63 -17 25 -84 100 -121 129 -63 10 21 9 29 -8 56 -11 18 -22 55 -26 82 -5 43 -3 51 17 65 12 8 28 13 34 11 6 -2 31 -36 55 -75 24 -39 63 -97 87 -130 42 -56 46 -59 87 -59 82 0 136 34 121 75 -4 8 -30 31 -59 51 -73 48 -143 118 -194 193 -43 63 -137 260 -181 379 -12 34 -32 69 -44 77 -25 18 -27 18 -53 0z m-204 -594 c20 -38 20 -39 1 -56 -16 -15 -24 -16 -43 -7 -67 34 -117 4 -95 -56 11 -28 9 -33 -13 -51 -13 -11 -27 -20 -30 -21 -7 0 -39 67 -39 82 0 16 74 78 139 115 31 18 57 33 58 33 2 0 12 -17 22 -39z m121 -205 c0 -47 -140 -176 -192 -176 -36 0 -68 16 -68 35 0 21 50 75 70 75 10 0 23 -7 30 -15 7 -8 16 -15 21 -15 20 0 44 43 49 87 4 38 10 50 30 60 22 11 27 10 42 -10 10 -12 18 -30 18 -41z"/>
 <path d="M11793 4383 c-17 -38 -38 -92 -48 -120 -11 -29 -23 -53 -27 -53 -22 0 -117 57 -218 130 -61 44 -120 81 -132 83 -49 5 -46 -72 4 -93 30 -11 510 -391 515 -406 2 -7 -11 -23 -29 -35 -68 -49 -191 -17 -236 61 -30 51 -90 65 -106 23 -15 -38 143 -231 212 -260 41 -17 65 -6 159 77 70 62 105 73 126 39 17 -27 0 -62 -59 -127 -59 -66 -132 -118 -221 -159 -28 -13 -53 -30 -56 -38 -12 -30 36 -135 63 -135 4 0 68 60 141 133 74 72 175 168 224 212 130 115 465 452 465 467 0 7 -23 48 -51 91 -34 52 -57 77 -67 75 -10 -2 -28 -31 -43 -68 -28 -69 -88 -176 -123 -219 -11 -14 -48 -54 -81 -89 l-61 -64 -24 20 c-28 23 -24 37 34 109 38 47 74 133 83 198 5 38 3 44 -18 55 -29 16 -381 160 -390 160 -3 0 -20 -30 -36 -67z m146 -133 c48 -13 142 -81 152 -109 5 -13 7 -33 3 -45 -9 -30 -55 -76 -76 -76 -14 0 -139 72 -212 122 -14 10 13 65 46 93 33 28 39 29 87 15z"/>
 <path d="M12263 3768 c-51 -68 -63 -91 -63 -121 0 -47 141 -138 180 -117 25 14 25 44 0 139 -11 41 -20 82 -20 91 0 19 -32 60 -47 60 -6 0 -28 -24 -50 -52z"/>
 <path d="M10602 3463 c-59 -85 -110 -311 -95 -420 l6 -43 -54 0 c-54 0 -119 -24 -126 -46 -2 -7 16 -14 44 -18 26 -3 71 -11 100 -17 50 -11 52 -13 63 -58 7 -25 26 -93 41 -150 16 -58 29 -112 29 -122 0 -20 -66 -49 -113 -49 -37 0 -102 32 -102 50 0 6 22 20 49 30 57 22 80 41 96 81 12 28 11 31 -30 66 -24 21 -95 75 -159 121 -133 96 -118 98 -177 -30 -17 -38 -34 -71 -37 -74 -3 -4 -26 1 -52 9 l-45 16 -73 -38 c-74 -40 -85 -53 -45 -57 13 -1 51 -5 84 -8 142 -13 267 -98 367 -249 21 -31 41 -57 45 -57 4 0 56 16 116 35 60 19 115 35 122 35 18 0 29 -22 89 -180 l52 -135 33 2 c20 1 43 11 59 27 l25 26 -31 32 c-44 48 -79 107 -97 168 -23 77 -21 89 17 105 19 8 39 21 47 30 16 19 8 92 -13 113 -14 13 -21 12 -61 -8 -26 -12 -52 -20 -59 -17 -13 5 -52 111 -62 170 -8 52 11 49 78 -13 30 -27 58 -50 61 -50 4 0 16 21 27 46 19 45 19 48 2 67 -10 10 -59 39 -109 63 -100 47 -112 63 -121 149 -5 54 19 188 38 211 6 8 26 14 44 14 37 0 102 -56 171 -145 43 -55 60 -63 55 -25 -4 37 -60 132 -151 258 -89 124 -112 136 -148 85z m-262 -691 c58 -56 64 -84 21 -102 -24 -9 -38 -9 -68 0 -45 15 -103 56 -103 74 0 22 62 72 93 75 4 1 30 -21 57 -47z"/>
 <path d="M4595 3454 c-68 -35 -68 -34 55 -151 62 -59 117 -112 122 -118 130 -160 131 -167 58 -312 -54 -110 -84 -153 -105 -153 -18 0 -86 85 -104 129 -20 46 -22 45 -109 -56 -34 -41 -59 -79 -56 -87 3 -7 17 -19 32 -25 48 -22 165 -105 224 -159 32 -30 78 -85 103 -122 25 -38 54 -72 65 -75 26 -8 78 20 117 64 41 46 41 64 1 92 -60 41 -88 72 -94 105 -7 38 23 143 59 210 12 22 31 57 41 77 34 65 69 51 275 -105 58 -45 115 -89 127 -99 20 -19 21 -18 66 10 45 28 98 88 98 109 0 9 -97 52 -117 52 -3 0 -60 28 -127 61 -221 112 -422 265 -566 431 -138 158 -120 146 -165 122z"/>
 <path d="M6697 2629 c-60 -9 -161 -58 -170 -83 -4 -11 13 -15 82 -18 72 -3 93 -8 120 -28 l34 -23 -5 -115 c-4 -77 -10 -117 -18 -122 -8 -5 -46 6 -94 27 -45 19 -106 44 -136 55 -30 12 -72 36 -93 54 -20 19 -43 34 -51 34 -22 0 -77 -51 -74 -67 2 -8 77 -52 168 -99 91 -47 184 -96 208 -110 l42 -25 -25 -33 c-14 -18 -25 -36 -25 -39 0 -3 18 -16 40 -28 42 -24 80 -73 80 -103 0 -27 -28 -18 -74 24 -24 22 -48 40 -54 40 -23 0 -71 36 -86 65 -16 29 -62 65 -83 65 -17 0 -82 -72 -77 -84 3 -7 19 -20 37 -28 18 -9 71 -40 118 -71 118 -76 156 -94 227 -107 55 -10 66 -9 112 11 58 25 68 21 100 -46 26 -54 16 -81 -33 -90 -76 -14 -169 19 -387 137 -47 26 -110 56 -141 68 -31 11 -64 29 -74 40 -23 26 -50 25 -69 -1 -16 -24 -11 -49 10 -49 7 0 54 -29 105 -65 50 -36 122 -80 159 -98 76 -36 98 -67 144 -197 40 -111 87 -210 101 -210 16 0 76 29 98 48 21 18 22 45 3 61 -8 7 -33 44 -57 84 -23 40 -49 82 -56 94 l-14 21 99 -5 c96 -6 103 -5 164 24 35 17 91 55 123 85 60 56 60 56 41 77 -17 19 -151 68 -231 85 -17 4 -56 29 -88 56 -32 28 -62 50 -65 50 -24 1 -33 18 -21 43 7 15 17 27 23 27 6 0 76 -18 156 -40 l145 -40 22 27 c31 38 55 90 51 111 -3 14 -25 19 -128 29 -69 7 -145 19 -170 26 -52 15 -52 10 -32 191 7 60 12 147 12 193 l0 83 -67 -1 c-38 -1 -94 -5 -126 -10z"/>
 <path d="M9770 2615 c-7 -9 -15 -38 -18 -64 l-4 -49 103 5 c63 3 115 1 131 -6 30 -11 91 -88 82 -102 -3 -5 -22 -9 -43 -9 -58 0 -69 -19 -46 -85 10 -30 28 -64 40 -75 l22 -21 49 29 c89 52 82 56 194 -101 30 -43 59 -77 66 -77 16 0 64 60 71 89 5 19 -2 31 -35 60 -35 31 -82 101 -82 123 0 4 12 13 27 20 41 20 49 41 27 71 -25 35 -45 40 -92 26 -32 -9 -44 -8 -70 5 -46 24 -56 76 -13 76 25 0 57 25 42 34 -6 4 -72 14 -147 22 -75 7 -165 21 -200 29 -81 19 -89 19 -104 0z"/>
 <path d="M10955 2576 c-27 -18 -56 -40 -63 -49 -20 -24 -6 -69 32 -106 52 -50 67 -41 94 59 35 135 23 153 -63 96z"/>
 <path d="M8890 2588 c-105 -11 -166 -34 -217 -81 -52 -48 -73 -92 -73 -154 0 -59 27 -188 51 -242 11 -24 17 -46 15 -48 -21 -21 -216 164 -256 244 -19 35 -37 54 -70 72 -57 30 -155 39 -194 19 l-28 -15 73 -38 c93 -47 201 -125 257 -183 65 -68 60 -72 -51 -37 -48 14 -48 14 -57 -11 -33 -87 -24 -104 59 -104 38 0 148 -17 260 -40 107 -22 200 -40 207 -40 17 0 37 75 29 108 -6 24 -7 24 -83 18 -42 -3 -90 -3 -106 2 l-30 8 32 13 c54 23 56 32 17 97 -53 88 -64 137 -45 204 7 27 18 39 42 48 55 19 161 42 200 42 53 0 77 -39 100 -158 9 -52 20 -97 23 -101 14 -13 23 29 30 133 3 61 11 137 16 170 6 32 7 62 2 66 -13 12 -123 17 -203 8z"/>
 <path d="M8016 2375 c-3 -8 6 -122 19 -253 25 -238 59 -437 92 -545 l18 -58 90 -6 c156 -11 181 -10 212 13 37 28 35 44 -8 69 -75 43 -89 60 -101 125 -16 84 -5 91 61 39 28 -23 53 -40 55 -38 2 2 6 29 10 60 5 46 3 61 -12 79 -17 21 -19 21 -56 6 -21 -9 -40 -16 -41 -16 -2 0 -6 24 -9 54 -10 79 -21 83 -95 36 -60 -39 -81 -47 -81 -33 0 32 -83 460 -92 470 -14 18 -55 16 -62 -2z m251 -533 c8 -5 11 -38 10 -102 -1 -72 3 -103 16 -129 18 -36 11 -56 -15 -46 -21 8 -44 61 -68 157 -12 46 -23 91 -26 100 -3 11 2 18 18 21 38 7 52 7 65 -1z"/>
 <path d="M6210 2153 c-61 -6 -79 -13 -90 -34 -16 -29 4 -81 48 -123 65 -63 94 -58 84 16 -4 30 0 46 17 68 11 16 21 35 21 43 0 16 -20 38 -34 35 -6 0 -27 -3 -46 -5z"/>
 <path d="M8534 1883 c-4 -20 -2 -43 3 -52 6 -10 48 -24 106 -37 52 -12 107 -24 120 -28 20 -5 27 -2 32 14 7 23 23 24 95 9 37 -8 54 -17 60 -32 11 -31 -3 -52 -53 -76 l-44 -21 -99 24 c-90 22 -207 46 -225 46 -4 0 -12 -13 -18 -30 -9 -26 -8 -30 9 -30 10 0 61 -11 112 -25 190 -51 282 -44 354 29 44 44 84 133 87 195 l2 36 -42 -2 c-23 -1 -72 -15 -110 -31 -98 -43 -113 -46 -113 -28 0 8 -9 20 -20 26 -16 9 -215 50 -241 50 -5 0 -11 -16 -15 -37z"/>
 <path d="M6283 1710 c-23 -35 -27 -97 -9 -125 21 -31 43 -32 67 -1 10 13 30 27 43 30 42 10 95 46 102 68 11 35 -20 48 -111 48 -69 0 -82 -3 -92 -20z"/>
 <path d="M6525 1578 c-31 -17 -75 -60 -75 -74 0 -16 148 -114 173 -114 13 0 17 5 13 18 -3 9 -15 54 -27 100 -24 87 -35 97 -84 70z"/>
 <path d="M8718 1556 c-21 -8 -50 -21 -64 -31 -24 -15 -26 -21 -20 -58 4 -23 21 -64 38 -91 l32 -49 18 23 c10 12 18 30 18 39 0 9 16 48 36 88 20 39 33 76 30 82 -9 14 -42 13 -88 -3z"/>
 </g>

</svg>